<svg width="50" height="50" viewBox="0 0 50 50" fill="none" xmlns="http://www.w3.org/2000/svg">
<path fill-rule="evenodd" clip-rule="evenodd" d="M12.5 7.29167C12.5 7.0154 12.6097 6.75045 12.8051 6.5551C13.0004 6.35975 13.2654 6.25 13.5417 6.25H36.4583C36.7346 6.25 36.9996 6.35975 37.1949 6.5551C37.3903 6.75045 37.5 7.0154 37.5 7.29167V8.33333H42.7083C42.9846 8.33333 43.2496 8.44308 43.4449 8.63843C43.6403 8.83378 43.75 9.09873 43.75 9.375V15.625C43.75 17.0063 43.2013 18.3311 42.2245 19.3078C41.2478 20.2846 39.923 20.8333 38.5417 20.8333H36.7885C36.044 22.9345 34.7518 24.7987 33.0456 26.2333C31.3395 27.6679 29.2811 28.6209 27.0833 28.9937V35.4167H33.3333C33.6096 35.4167 33.8746 35.5264 34.0699 35.7218C34.2653 35.9171 34.375 36.1821 34.375 36.4583V42.7083C34.375 42.9846 34.2653 43.2496 34.0699 43.4449C33.8746 43.6403 33.6096 43.75 33.3333 43.75H16.6667C16.3904 43.75 16.1254 43.6403 15.9301 43.4449C15.7347 43.2496 15.625 42.9846 15.625 42.7083V36.4583C15.625 36.1821 15.7347 35.9171 15.9301 35.7218C16.1254 35.5264 16.3904 35.4167 16.6667 35.4167H22.9167V28.9937C20.7189 28.6209 18.6605 27.6679 16.9544 26.2333C15.2482 24.7987 13.956 22.9345 13.2115 20.8333H11.4583C10.077 20.8333 8.75224 20.2846 7.77549 19.3078C6.79873 18.3311 6.25 17.0063 6.25 15.625V9.375C6.25 9.09873 6.35975 8.83378 6.5551 8.63843C6.75045 8.44308 7.0154 8.33333 7.29167 8.33333H12.5V7.29167ZM37.5 16.6667V10.4167H41.6667V15.625C41.6667 16.4538 41.3374 17.2487 40.7514 17.8347C40.1653 18.4208 39.3705 18.75 38.5417 18.75H37.5V16.6667ZM12.5 10.4167H8.33333V15.625C8.33333 16.4538 8.66257 17.2487 9.24862 17.8347C9.83468 18.4208 10.6295 18.75 11.4583 18.75H12.5V10.4167Z" fill="#1581FF"/>
</svg>
