<svg width="50" height="50" viewBox="0 0 50 50" fill="none" xmlns="http://www.w3.org/2000/svg">
<path d="M47.8804 41.8297C45.8109 40.2351 40.3007 35.8312 35.1687 30.5391C31.7577 27.0195 30.307 23.4961 27.721 20.8289C25.3788 18.4133 23.2484 17.0055 23.2484 17.0055L22.6484 17.6242L18.5952 13.4445L20.1609 11.8297C20.288 11.697 20.3589 11.5204 20.3589 11.3367C20.3589 11.153 20.288 10.9764 20.1609 10.8437L19.8374 10.5101C19.839 10.5086 24.4452 4.31015 30.2695 6.02421C30.946 6.22499 31.5491 6.5664 31.7202 6.39218C31.9531 6.15312 31.0663 5.23437 30.5468 4.70312C23.1788 -2.83594 15.0515 5.56562 15.0476 5.56952L14.7609 5.27343C14.6992 5.20901 14.6251 5.15774 14.543 5.12272C14.461 5.08769 14.3727 5.06964 14.2835 5.06964C14.1943 5.06964 14.106 5.08769 14.024 5.12272C13.942 5.15774 13.8679 5.20901 13.8062 5.27343L6.58821 12.7172C6.4611 12.8498 6.39014 13.0264 6.39014 13.2101C6.39014 13.3939 6.4611 13.5705 6.58821 13.7031C6.58821 13.7031 7.4718 15.2492 5.15461 15.5273C4.2218 15.6406 3.63743 15.8508 3.30618 16.1281C2.7891 16.6496 2.27373 17.1728 1.76008 17.6976C1.63297 17.8303 1.56201 18.0069 1.56201 18.1906C1.56201 18.3743 1.63297 18.5509 1.76008 18.6836L7.16164 24.2555C7.22341 24.3199 7.29757 24.3712 7.37967 24.4062C7.46178 24.4413 7.55012 24.4593 7.63938 24.4593C7.72864 24.4593 7.81698 24.4413 7.89908 24.4062C7.98118 24.3712 8.05535 24.3199 8.11711 24.2555C8.11711 24.2555 9.60618 22.7008 9.63821 22.6601C9.90618 22.318 10.1109 21.7164 10.2187 20.7539C10.4906 18.3633 11.9874 19.2758 11.9874 19.2758C12.0491 19.3404 12.1233 19.3919 12.2055 19.4271C12.2877 19.4623 12.3762 19.4804 12.4656 19.4804C12.5549 19.4804 12.6434 19.4623 12.7256 19.4271C12.8078 19.3919 12.882 19.3404 12.9437 19.2758L14.5093 17.6609L18.5609 21.8398L17.9609 22.4594C17.9609 22.4594 19.3265 24.657 21.6687 27.0727C24.2538 29.7391 27.671 31.2352 31.0827 34.7547C36.2132 40.0469 40.4827 45.7289 42.0312 47.8641C42.6156 48.668 42.7085 48.5937 43.4218 47.857L45.6476 45.5617L47.8718 43.2672C48.5866 42.5281 48.6601 42.4328 47.8804 41.8297Z" fill="#1581FF"/>
<path d="M26.5687 17.7258C27.2392 18.3315 27.8898 18.9589 28.5194 19.607C29.7632 20.8899 30.8038 22.325 31.8468 23.857L38.8327 16.8703C40.1282 17.1869 41.4833 17.1645 42.7676 16.8052C44.0518 16.446 45.2219 15.762 46.1651 14.8192C47.1082 13.8763 47.7926 12.7065 48.1523 11.4223C48.512 10.1382 48.5348 8.78306 48.2187 7.48751L41.878 13.8281L37.378 12.6227L36.1718 8.12032L42.5108 1.7836C41.2157 1.46669 39.8606 1.4893 38.5768 1.84924C37.2929 2.20918 36.1236 2.89428 35.1819 3.83829C34.2387 4.78032 33.554 5.94947 33.194 7.23303C32.834 8.51659 32.8107 9.87125 33.1265 11.1664L26.5687 17.7258ZM20.6944 27.6789C20.0245 26.987 19.3785 26.2723 18.7577 25.5359L11.1663 33.1281C9.87118 32.8116 8.51632 32.8343 7.23253 33.1941C5.94875 33.5539 4.7794 34.2385 3.8374 35.182C0.803809 38.2133 0.80459 43.1305 3.8374 46.1625C4.55815 46.8838 5.41396 47.456 6.35594 47.8464C7.29791 48.2367 8.30758 48.4377 9.32725 48.4377C10.3469 48.4377 11.3566 48.2367 12.2986 47.8464C13.2405 47.456 14.0963 46.8838 14.8171 46.1625C15.7604 45.2199 16.4451 44.0502 16.8051 42.7661C17.1651 41.4821 17.1883 40.1269 16.8726 38.8313L24.6882 31.0164C23.2507 29.9711 21.9015 28.9234 20.6944 27.6789ZM10.5335 45.1727L6.03271 43.9664L4.82725 39.4649L8.12256 36.1719L12.6226 37.3758L13.828 41.8781L10.5335 45.1727Z" fill="#1581FF"/>
</svg>
