<svg width="50" height="50" viewBox="0 0 50 50" fill="none" xmlns="http://www.w3.org/2000/svg">
<path d="M44.5672 37.2078C43.7579 36.4109 33.95 32.6172 32.1704 31.9015C30.4 31.1984 29.6938 29.25 29.6938 29.25C29.6938 29.25 28.8969 29.6906 28.8969 28.4531C28.8969 27.214 29.6938 29.25 30.4907 24.4719C30.4907 24.4719 32.7016 23.8515 32.2625 18.7219H31.7313C31.7313 18.7219 33.0594 13.2375 31.7313 11.3812C30.3985 9.52498 29.8766 8.28748 26.95 7.39998C24.0282 6.51404 25.0907 6.6906 22.9688 6.78123C20.8438 6.87029 19.075 8.02029 19.075 8.63748C19.075 8.63748 17.7469 8.72654 17.2188 9.25779C16.6875 9.78904 15.8032 12.264 15.8032 12.8828C15.8032 13.5015 16.2454 17.664 16.6875 18.5453L16.161 18.7172C15.7188 23.8484 17.9297 24.4703 17.9297 24.4703C18.7266 29.2484 19.5235 27.2125 19.5235 28.4515C19.5235 29.689 18.7266 29.2484 18.7266 29.2484C18.7266 29.2484 18.0188 31.1953 16.25 31.9C14.4813 32.6078 4.66254 36.4109 3.86411 37.2062C3.06723 38.0187 3.15629 41.7312 3.15629 41.7312H21.9625L23.3344 36.325L22.1157 35.1062L24.2141 33.0047L26.3125 35.1047L25.0938 36.3234L26.4657 41.7297H45.2719C45.2719 41.7297 45.3704 38.014 44.5641 37.2031L44.5672 37.2078Z" fill="#1581FF"/>
</svg>
