<svg width="32" height="32" viewBox="0 0 32 32" fill="none" xmlns="http://www.w3.org/2000/svg">
<path fill-rule="evenodd" clip-rule="evenodd" d="M1.33325 3.78368C1.33325 3.13372 1.59145 2.51038 2.05104 2.05079C2.51063 1.59121 3.13396 1.33301 3.78392 1.33301H28.2133C28.5354 1.33249 28.8544 1.39549 29.1521 1.51843C29.4498 1.64137 29.7204 1.82182 29.9482 2.04946C30.1761 2.27709 30.3569 2.54744 30.4801 2.84502C30.6034 3.14261 30.6668 3.46158 30.6666 3.78368V28.213C30.6669 28.5352 30.6038 28.8542 30.4807 29.152C30.3576 29.4497 30.177 29.7202 29.9493 29.9481C29.7215 30.176 29.4511 30.3567 29.1534 30.4799C28.8558 30.6032 28.5367 30.6665 28.2146 30.6663H3.78392C3.46198 30.6663 3.1432 30.6029 2.84578 30.4797C2.54837 30.3564 2.27815 30.1758 2.05056 29.9481C1.82298 29.7204 1.64249 29.4501 1.51942 29.1526C1.39634 28.8551 1.33308 28.5363 1.33325 28.2143V3.78368ZM12.9439 12.517H16.9159V14.5117C17.4893 13.365 18.9559 12.333 21.1599 12.333C25.3853 12.333 26.3866 14.617 26.3866 18.8077V26.5703H22.1106V19.7623C22.1106 17.3757 21.5373 16.029 20.0813 16.029C18.0613 16.029 17.2213 17.481 17.2213 19.7623V26.5703H12.9439V12.517ZM5.61059 26.3877H9.88792V12.333H5.61059V26.3863V26.3877ZM10.4999 7.74901C10.508 8.11524 10.4428 8.47939 10.3082 8.8201C10.1737 9.1608 9.97239 9.47119 9.71623 9.73305C9.46007 9.99492 9.15418 10.203 8.81653 10.345C8.47887 10.4871 8.11624 10.5602 7.74992 10.5602C7.3836 10.5602 7.02097 10.4871 6.68331 10.345C6.34565 10.203 6.03977 9.99492 5.78361 9.73305C5.52745 9.47119 5.32618 9.1608 5.1916 8.8201C5.05702 8.47939 4.99185 8.11524 4.99992 7.74901C5.01575 7.03015 5.31243 6.34607 5.82643 5.84326C6.34043 5.34045 7.03088 5.0589 7.74992 5.0589C8.46895 5.0589 9.1594 5.34045 9.67341 5.84326C10.1874 6.34607 10.4841 7.03015 10.4999 7.74901Z" fill="#1581FF"/>
</svg>
