<svg width="25" height="24" viewBox="0 0 25 24" fill="none" xmlns="http://www.w3.org/2000/svg">
<path d="M12.5 14C14.706 14 16.5 12.206 16.5 10C16.5 7.794 14.706 6 12.5 6C10.294 6 8.5 7.794 8.5 10C8.5 12.206 10.294 14 12.5 14ZM12.5 8C13.603 8 14.5 8.897 14.5 10C14.5 11.103 13.603 12 12.5 12C11.397 12 10.5 11.103 10.5 10C10.5 8.897 11.397 8 12.5 8Z" fill="#1581FF"/>
<path d="M11.9201 21.814C12.0893 21.9349 12.2921 21.9998 12.5001 21.9998C12.7081 21.9998 12.9108 21.9349 13.0801 21.814C13.3841 21.599 20.5291 16.44 20.5001 10C20.5001 5.589 16.9111 2 12.5001 2C8.08909 2 4.50009 5.589 4.50009 9.995C4.47109 16.44 11.6161 21.599 11.9201 21.814ZM12.5001 4C15.8091 4 18.5001 6.691 18.5001 10.005C18.5211 14.443 14.1121 18.428 12.5001 19.735C10.8891 18.427 6.47909 14.441 6.50009 10C6.50009 6.691 9.19109 4 12.5001 4Z" fill="#1581FF"/>
</svg>
