<svg width="50" height="50" viewBox="0 0 50 50" fill="none" xmlns="http://www.w3.org/2000/svg">
<path d="M27.5 28.125H26.25V19.5312C26.25 19.0996 25.9703 18.75 25.625 18.75H24.5641C24.1938 18.75 23.832 18.8867 23.5242 19.1436L22.3266 20.1416C22.2583 20.1984 22.1996 20.2716 22.1539 20.3568C22.1082 20.442 22.0764 20.5376 22.0603 20.6382C22.0442 20.7388 22.0441 20.8423 22.06 20.9429C22.076 21.0436 22.1076 21.1393 22.1531 21.2246L22.8469 22.5244C22.8924 22.6098 22.9508 22.6831 23.019 22.7402C23.0872 22.7974 23.1637 22.8371 23.2441 22.8572C23.3246 22.8774 23.4074 22.8775 23.4879 22.8576C23.5684 22.8377 23.645 22.7981 23.7133 22.7412L23.75 22.7109V28.125H22.5C22.1547 28.125 21.875 28.4746 21.875 28.9062V30.4688C21.875 30.9004 22.1547 31.25 22.5 31.25H27.5C27.8453 31.25 28.125 30.9004 28.125 30.4688V28.9062C28.125 28.4746 27.8453 28.125 27.5 28.125ZM47.5 6.25H2.5C1.11953 6.25 0 7.64941 0 9.375V40.625C0 42.3506 1.11953 43.75 2.5 43.75H47.5C48.8805 43.75 50 42.3506 50 40.625V9.375C50 7.64941 48.8805 6.25 47.5 6.25ZM3.75 39.0625V32.8125C6.51172 32.8125 8.75 35.6104 8.75 39.0625H3.75ZM3.75 17.1875V10.9375H8.75C8.75 14.3896 6.51172 17.1875 3.75 17.1875ZM25 35.9375C20.8578 35.9375 17.5 31.04 17.5 25C17.5 18.959 20.8578 14.0625 25 14.0625C29.1422 14.0625 32.5 18.959 32.5 25C32.5 31.042 29.1406 35.9375 25 35.9375ZM46.25 39.0625H41.25C41.25 35.6104 43.4883 32.8125 46.25 32.8125V39.0625ZM46.25 17.1875C43.4883 17.1875 41.25 14.3896 41.25 10.9375H46.25V17.1875Z" fill="#1581FF"/>
</svg>
