<svg width="25" height="24" viewBox="0 0 25 24" fill="none" xmlns="http://www.w3.org/2000/svg">
<path d="M22.25 3.75H2.75C2.33516 3.75 2 4.08516 2 4.5V19.5C2 19.9148 2.33516 20.25 2.75 20.25H22.25C22.6648 20.25 23 19.9148 23 19.5V4.5C23 4.08516 22.6648 3.75 22.25 3.75ZM20.3563 6.30234L12.9617 12.0563C12.7789 12.1992 12.5234 12.1992 12.3406 12.0563L4.94375 6.30234C4.91587 6.28082 4.89541 6.25112 4.88526 6.21739C4.87511 6.18367 4.87576 6.14761 4.88713 6.11427C4.8985 6.08094 4.92002 6.052 4.94867 6.0315C4.97731 6.01101 5.01165 5.99999 5.04688 6H20.2531C20.2883 5.99999 20.3227 6.01101 20.3513 6.0315C20.38 6.052 20.4015 6.08094 20.4129 6.11427C20.4242 6.14761 20.4249 6.18367 20.4147 6.21739C20.4046 6.25112 20.3841 6.28082 20.3563 6.30234Z" fill="#1581FF"/>
</svg>
