<svg width="32" height="32" viewBox="0 0 32 32" fill="none" xmlns="http://www.w3.org/2000/svg">
<path d="M28.3782 11.0343L20.4438 9.88116L16.8969 2.69054C16.8001 2.49366 16.6407 2.33429 16.4438 2.23741C15.9501 1.99366 15.3501 2.19679 15.1032 2.69054L11.5563 9.88116L3.62193 11.0343C3.40318 11.0655 3.20318 11.1687 3.05006 11.3249C2.86494 11.5152 2.76293 11.7712 2.76645 12.0366C2.76996 12.3021 2.87871 12.5552 3.06881 12.7405L8.80943 18.3374L7.45318 26.2405C7.42138 26.4244 7.44172 26.6135 7.51191 26.7863C7.58209 26.9592 7.69931 27.1089 7.85027 27.2186C8.00123 27.3282 8.17989 27.3934 8.36599 27.4066C8.5521 27.4199 8.73819 27.3808 8.90318 27.2937L16.0001 23.5624L23.0969 27.2937C23.2907 27.3968 23.5157 27.4312 23.7313 27.3937C24.2751 27.2999 24.6407 26.7843 24.5469 26.2405L23.1907 18.3374L28.9313 12.7405C29.0876 12.5874 29.1907 12.3874 29.2219 12.1687C29.3063 11.6218 28.9251 11.1155 28.3782 11.0343Z" fill="#1581FF"/>
</svg>
