<svg width="50" height="50" viewBox="0 0 50 50" fill="none" xmlns="http://www.w3.org/2000/svg">
<g clip-path="url(#clip0_31_603)">
<path d="M50 25C50 31.6304 47.3661 37.9893 42.6777 42.6777C37.9893 47.3661 31.6304 50 25 50C18.3696 50 12.0107 47.3661 7.32233 42.6777C2.63392 37.9893 0 31.6304 0 25C0 18.3696 2.63392 12.0107 7.32233 7.32233C12.0107 2.63392 18.3696 0 25 0C31.6304 0 37.9893 2.63392 42.6777 7.32233C47.3661 12.0107 50 18.3696 50 25ZM25 10.9375C25 10.5231 24.8354 10.1257 24.5424 9.83265C24.2493 9.53962 23.8519 9.375 23.4375 9.375C23.0231 9.375 22.6257 9.53962 22.3326 9.83265C22.0396 10.1257 21.875 10.5231 21.875 10.9375V28.125C21.8751 28.4004 21.948 28.6709 22.0863 28.9091C22.2246 29.1473 22.4234 29.3446 22.6625 29.4813L33.6 35.7313C33.9589 35.9252 34.3795 35.9711 34.7718 35.8591C35.1642 35.7471 35.4971 35.4861 35.6995 35.1319C35.9019 34.7776 35.9578 34.3583 35.8551 33.9634C35.7524 33.5685 35.4994 33.2295 35.15 33.0187L25 27.2188V10.9375Z" fill="#1581FF"/>
</g>
<defs>
<clipPath id="clip0_31_603">
<rect width="50" height="50" fill="white"/>
</clipPath>
</defs>
</svg>
