<svg width="50" height="50" viewBox="0 0 50 50" fill="none" xmlns="http://www.w3.org/2000/svg">
<path d="M25 6.25635C24.1801 6.25635 23.3681 6.41785 22.6106 6.73162C21.8531 7.0454 21.1648 7.50531 20.585 8.0851C20.0052 8.66489 19.5453 9.35319 19.2315 10.1107C18.9177 10.8682 18.7562 11.6802 18.7562 12.5001C18.7562 13.32 18.9177 14.132 19.2315 14.8895C19.5453 15.647 20.0052 16.3353 20.585 16.9151C21.1648 17.4949 21.8531 17.9548 22.6106 18.2686C23.3681 18.5823 24.1801 18.7438 25 18.7438C26.6559 18.7438 28.2441 18.086 29.415 16.9151C30.5859 15.7442 31.2437 14.156 31.2437 12.5001C31.2437 10.8442 30.5859 9.25603 29.415 8.0851C28.2441 6.91417 26.6559 6.25635 25 6.25635ZM39.0625 9.3751C37.8193 9.3751 36.627 9.86896 35.7479 10.748C34.8689 11.6271 34.375 12.8194 34.375 14.0626C34.375 15.3058 34.8689 16.4981 35.7479 17.3772C36.627 18.2562 37.8193 18.7501 39.0625 18.7501C40.3057 18.7501 41.498 18.2562 42.3771 17.3772C43.2561 16.4981 43.75 15.3058 43.75 14.0626C43.75 12.8194 43.2561 11.6271 42.3771 10.748C41.498 9.86896 40.3057 9.3751 39.0625 9.3751ZM10.9375 9.3751C9.6943 9.3751 8.50201 9.86896 7.62294 10.748C6.74386 11.6271 6.25 12.8194 6.25 14.0626C6.25 15.3058 6.74386 16.4981 7.62294 17.3772C8.50201 18.2562 9.6943 18.7501 10.9375 18.7501C12.1807 18.7501 13.373 18.2562 14.2521 17.3772C15.1311 16.4981 15.625 15.3058 15.625 14.0626C15.625 12.8194 15.1311 11.6271 14.2521 10.748C13.373 9.86896 12.1807 9.3751 10.9375 9.3751ZM15.625 24.9782C15.6308 24.1532 15.9626 23.364 16.548 22.7826C17.1334 22.2013 17.925 21.8751 18.75 21.8751H31.25C32.0788 21.8751 32.8737 22.2043 33.4597 22.7904C34.0458 23.3764 34.375 24.1713 34.375 25.0001V34.3751C34.3748 35.3586 34.2208 36.336 33.9188 37.272C33.2268 39.3929 31.8014 41.1977 29.8985 42.3623C27.9956 43.5268 25.7399 43.9749 23.5363 43.6259C21.3328 43.277 19.3259 42.154 17.8759 40.4585C16.4259 38.763 15.6278 36.6061 15.625 34.3751V24.9782ZM12.5 25.0001C12.5 23.8595 12.8031 22.7938 13.3375 21.8751H6.25C5.4212 21.8751 4.62634 22.2043 4.04029 22.7904C3.45424 23.3764 3.125 24.1713 3.125 25.0001V32.8126C3.12457 34.0917 3.43821 35.3513 4.03835 36.4808C4.6385 37.6104 5.5068 38.5753 6.56701 39.2908C7.62721 40.0064 8.84689 40.4507 10.1189 40.5847C11.391 40.7187 12.6765 40.5384 13.8625 40.0595C12.9631 38.2988 12.496 36.3491 12.5 34.372V25.0001ZM37.5 25.0001V34.3751C37.5 36.422 37.0094 38.3532 36.1375 40.0595C37.3235 40.5384 38.609 40.7187 39.8811 40.5847C41.1531 40.4507 42.3728 40.0064 43.433 39.2908C44.4932 38.5753 45.3615 37.6104 45.9616 36.4808C46.5618 35.3513 46.8754 34.0917 46.875 32.8126V25.0001C46.875 24.1713 46.5458 23.3764 45.9597 22.7904C45.3737 22.2043 44.5788 21.8751 43.75 21.8751H36.6625C37.1938 22.7938 37.5 23.8595 37.5 25.0001Z" fill="#1581FF"/>
</svg>
