<svg width="30" height="30" viewBox="0 0 30 30" fill="none" xmlns="http://www.w3.org/2000/svg">
<g clip-path="url(#clip0_5_871)">
<path d="M9.375 0C8.87772 0 8.40081 0.197544 8.04918 0.549175C7.69754 0.900806 7.5 1.37772 7.5 1.875V28.125C7.5 28.6223 7.69754 29.0992 8.04918 29.4508C8.40081 29.8025 8.87772 30 9.375 30H20.625C21.1223 30 21.5992 29.8025 21.9508 29.4508C22.3025 29.0992 22.5 28.6223 22.5 28.125V1.875C22.5 1.37772 22.3025 0.900806 21.9508 0.549175C21.5992 0.197544 21.1223 0 20.625 0L9.375 0ZM10.3125 26.25C10.5611 26.25 10.7996 26.3488 10.9754 26.5246C11.1512 26.7004 11.25 26.9389 11.25 27.1875C11.25 27.4361 11.1512 27.6746 10.9754 27.8504C10.7996 28.0262 10.5611 28.125 10.3125 28.125C10.0639 28.125 9.8254 28.0262 9.64959 27.8504C9.47377 27.6746 9.375 27.4361 9.375 27.1875C9.375 26.9389 9.47377 26.7004 9.64959 26.5246C9.8254 26.3488 10.0639 26.25 10.3125 26.25ZM14.0625 26.25C14.3111 26.25 14.5496 26.3488 14.7254 26.5246C14.9012 26.7004 15 26.9389 15 27.1875C15 27.4361 14.9012 27.6746 14.7254 27.8504C14.5496 28.0262 14.3111 28.125 14.0625 28.125C13.8139 28.125 13.5754 28.0262 13.3996 27.8504C13.2238 27.6746 13.125 27.4361 13.125 27.1875C13.125 26.9389 13.2238 26.7004 13.3996 26.5246C13.5754 26.3488 13.8139 26.25 14.0625 26.25ZM9.375 2.8125C9.375 2.56386 9.47377 2.3254 9.64959 2.14959C9.8254 1.97377 10.0639 1.875 10.3125 1.875H19.6875C19.9361 1.875 20.1746 1.97377 20.3504 2.14959C20.5262 2.3254 20.625 2.56386 20.625 2.8125C20.625 3.06114 20.5262 3.2996 20.3504 3.47541C20.1746 3.65123 19.9361 3.75 19.6875 3.75H10.3125C10.0639 3.75 9.8254 3.65123 9.64959 3.47541C9.47377 3.2996 9.375 3.06114 9.375 2.8125ZM10.3125 5.625H19.6875C19.9361 5.625 20.1746 5.72377 20.3504 5.89959C20.5262 6.0754 20.625 6.31386 20.625 6.5625C20.625 6.81114 20.5262 7.0496 20.3504 7.22541C20.1746 7.40123 19.9361 7.5 19.6875 7.5H10.3125C10.0639 7.5 9.8254 7.40123 9.64959 7.22541C9.47377 7.0496 9.375 6.81114 9.375 6.5625C9.375 6.31386 9.47377 6.0754 9.64959 5.89959C9.8254 5.72377 10.0639 5.625 10.3125 5.625Z" fill="#1581FF"/>
</g>
<defs>
<clipPath id="clip0_5_871">
<rect width="30" height="30" fill="white"/>
</clipPath>
</defs>
</svg>
